<?xml version="1.0" encoding="UTF-8" standalone="no"?>
<!DOCTYPE svg PUBLIC "-//W3C//DTD SVG 1.1//EN" "http://www.w3.org/Graphics/SVG/1.1/DTD/svg11.dtd">
<!-- Generated by graphviz version 2.40.1 (20161225.0304)
 -->
<!-- Title: TD Pages: 1 -->
<svg xmlns="http://www.w3.org/2000/svg" xmlns:xlink="http://www.w3.org/1999/xlink" width="1175pt" height="757pt" viewBox="0.00 0.00 1174.50 756.90">
  <g id="graph0" class="graph" transform="scale(1 1) rotate(0) translate(4 752.9)">
    <title>TD</title>
    <g id="a_graph0">
      <a xlink:title="Click the boxes for further information">
        <polygon fill="#ffffff" stroke="transparent" points="-4,4 -4,-752.9 1170.5,-752.9 1170.5,4 -4,4"/>
      </a>
    </g>
    <!-- 3&#45;&gt;4 -->
    <!-- 3&#45;&gt;5 -->
    <!-- 4&#45;&gt;5 -->
    <g id="edge3" class="edge">
      <title>4-&gt;5</title>
      <path fill="none" stroke="#000000" d="M302.821,-576C311.202,-576 319.6641,-576 328.0915,-576"/>
      <polygon fill="#000000" stroke="#000000" points="328.346,-579.5001 338.346,-576 328.3459,-572.5001 328.346,-579.5001"/>
    </g>
    <!-- 4&#45;&gt;6 -->
    <g id="edge4" class="edge">
      <title>4-&gt;6</title>
      <path fill="none" stroke="#000000" d="M176.5,-467.7308C176.5,-445.0684 176.5,-423.0594 176.5,-406.5104"/>
      <polygon fill="#000000" stroke="#000000" points="180.0001,-406.4717 176.5,-396.4717 173.0001,-406.4718 180.0001,-406.4717"/>
    </g>
    <!-- 5&#45;&gt;7 -->
    <!-- 6&#45;&gt;7 -->
    <g id="edge5" class="edge">
      <title>6-&gt;7</title>
      <path fill="none" stroke="#000000" d="M302.821,-378C311.202,-378 319.6641,-378 328.0915,-378"/>
      <polygon fill="#000000" stroke="#000000" points="328.346,-381.5001 338.346,-378 328.3459,-374.5001 328.346,-381.5001"/>
    </g>
    <!-- 6&#45;&gt;8 -->
    <g id="edge6" class="edge">
      <title>6-&gt;8</title>
      <path fill="none" stroke="#000000" d="M176.5,-359.4582C176.5,-351.9583 176.5,-343.1245 176.5,-334.8217"/>
      <polygon fill="#000000" stroke="#000000" points="180.0001,-334.7292 176.5,-324.7292 173.0001,-334.7292 180.0001,-334.7292"/>
    </g>
    <!-- 7&#45;&gt;9 -->
    <!-- 8&#45;&gt;9 -->
    <g id="edge7" class="edge">
      <title>8-&gt;9</title>
      <path fill="none" stroke="#000000" d="M302.821,-306C311.202,-306 319.6641,-306 328.0915,-306"/>
      <polygon fill="#000000" stroke="#000000" points="328.346,-309.5001 338.346,-306 328.3459,-302.5001 328.346,-309.5001"/>
    </g>
    <!-- 8&#45;&gt;10 -->
    <g id="edge8" class="edge">
      <title>8-&gt;10</title>
      <path fill="none" stroke="#000000" d="M176.5,-287.3789C176.5,-272.8596 176.5,-252.439 176.5,-235.8142"/>
      <polygon fill="#000000" stroke="#000000" points="180.0001,-235.5376 176.5,-225.5376 173.0001,-235.5377 180.0001,-235.5376"/>
    </g>
    <!-- 9&#45;&gt;11 -->
    <!-- 10&#45;&gt;12 -->
    <g id="edge10" class="edge">
      <title>10-&gt;12</title>
      <path fill="none" stroke="#000000" d="M176.5,-188.5446C176.5,-166.7891 176.5,-129.8399 176.5,-100.1609"/>
      <polygon fill="#000000" stroke="#000000" points="180.0001,-100.0031 176.5,-90.0031 173.0001,-100.0032 180.0001,-100.0031"/>
    </g>
    <!-- 10&#45;&gt;C -->
    <g id="edge9" class="edge">
      <title>10-&gt;C</title>
      <path fill="none" stroke="#000000" d="M302.821,-207C311.202,-207 319.6641,-207 328.0915,-207"/>
      <polygon fill="#000000" stroke="#000000" points="328.346,-210.5001 338.346,-207 328.3459,-203.5001 328.346,-210.5001"/>
    </g>
    <!-- 13&#45;&gt;14 -->
    <g id="edge15" class="edge">
      <title>13-&gt;14</title>
      <path fill="none" stroke="#ffffff" d="M883.2109,-719.782C861.1395,-695.5035 816.2926,-646.1719 785.3335,-612.1168"/>
    </g>
    <!-- 14&#45;&gt;15 -->
    <g id="edge16" class="edge">
      <title>14-&gt;15</title>
      <path fill="none" stroke="#000000" d="M752.5,-539.8668C752.5,-485.6281 752.5,-384.2577 752.5,-334.7256"/>
      <polygon fill="#000000" stroke="#000000" points="756.0001,-334.4196 752.5,-324.4196 749.0001,-334.4196 756.0001,-334.4196"/>
    </g>
    <!-- 15&#45;&gt;16 -->
    <g id="edge17" class="edge">
      <title>15-&gt;16</title>
      <path fill="none" stroke="#000000" d="M878.821,-306C887.202,-306 895.6641,-306 904.0915,-306"/>
      <polygon fill="#000000" stroke="#000000" points="904.346,-309.5001 914.346,-306 904.3459,-302.5001 904.346,-309.5001"/>
    </g>
    <!-- 15&#45;&gt;17 -->
    <g id="edge18" class="edge">
      <title>15-&gt;17</title>
      <path fill="none" stroke="#000000" d="M752.5,-287.3789C752.5,-272.8596 752.5,-252.439 752.5,-235.8142"/>
      <polygon fill="#000000" stroke="#000000" points="756.0001,-235.5376 752.5,-225.5376 749.0001,-235.5377 756.0001,-235.5376"/>
    </g>
    <!-- 16&#45;&gt;18 -->
    <!-- 17&#45;&gt;18 -->
    <g id="edge19" class="edge">
      <title>17-&gt;18</title>
      <path fill="none" stroke="#000000" d="M878.821,-207C887.202,-207 895.6641,-207 904.0915,-207"/>
      <polygon fill="#000000" stroke="#000000" points="904.346,-210.5001 914.346,-207 904.3459,-203.5001 904.346,-210.5001"/>
    </g>
    <!-- 17&#45;&gt;B -->
    <g id="edge20" class="edge">
      <title>17-&gt;B</title>
      <path fill="none" stroke="#000000" d="M752.5,-188.5446C752.5,-149.7588 752.5,-62.6818 752.5,-54.6035"/>
    </g>
    <!-- B&#45;&gt;12 -->
    <g id="edge21" class="edge">
      <title>B-&gt;12</title>
      <path fill="none" stroke="#000000" d="M751.8494,-54C737.2012,-54 478.5171,-54 313.0507,-54"/>
      <polygon fill="#000000" stroke="#000000" points="312.7833,-50.5001 302.7832,-54 312.7832,-57.5001 312.7833,-50.5001"/>
    </g>
    <!-- identification -->
    <g id="node1" class="node">
      <title>identification</title>
      <g id="a_node1">
        <a xlink:title="Blue identification box">
          <path fill="#f2f2f2" stroke="#f2f2f2" d="M19.3333,-684C19.3333,-684 9.6667,-684 9.6667,-684 4.8333,-684 0,-679.1667 0,-674.3333 0,-674.3333 0,-477.6667 0,-477.6667 0,-472.8333 4.8333,-468 9.6667,-468 9.6667,-468 19.3333,-468 19.3333,-468 24.1667,-468 29,-472.8333 29,-477.6667 29,-477.6667 29,-674.3333 29,-674.3333 29,-679.1667 24.1667,-684 19.3333,-684"/>
          <text text-anchor="middle" x="572.4" y="16.5" font-family="Helvetica,sans-Serif" font-size="12.00" fill="#000000" transform="rotate(-90)">Identification</text>
        </a>
      </g>
    </g>
    <!-- screening -->
    <g id="node2" class="node">
      <title>screening</title>
      <g id="a_node2">
        <a xlink:title="Blue screening box">
          <path fill="#f2f2f2" stroke="#f2f2f2" d="M19.3333,-432C19.3333,-432 9.6667,-432 9.6667,-432 4.8333,-432 0,-427.1667 0,-422.3333 0,-422.3333 0,-171.6667 0,-171.6667 0,-166.8333 4.8333,-162 9.6667,-162 9.6667,-162 19.3333,-162 19.3333,-162 24.1667,-162 29,-166.8333 29,-171.6667 29,-171.6667 29,-422.3333 29,-422.3333 29,-427.1667 24.1667,-432 19.3333,-432"/>
          <text text-anchor="middle" x="293.4" y="16.5" font-family="Helvetica,sans-Serif" font-size="12.00" fill="#000000" transform="rotate(-90)">Screening</text>
        </a>
      </g>
    </g>
    <!-- included -->
    <g id="node3" class="node">
      <title>included</title>
      <g id="a_node3">
        <a xlink:title="Blue included box">
          <path fill="#f2f2f2" stroke="#f2f2f2" d="M19.3333,-108C19.3333,-108 9.6667,-108 9.6667,-108 4.8333,-108 0,-103.1667 0,-98.3333 0,-98.3333 0,-9.6667 0,-9.6667 0,-4.8333 4.8333,0 9.6667,0 9.6667,0 19.3333,0 19.3333,0 24.1667,0 29,-4.8333 29,-9.6667 29,-9.6667 29,-98.3333 29,-98.3333 29,-103.1667 24.1667,-108 19.3333,-108"/>
          <text text-anchor="middle" x="50.4" y="16.5" font-family="Helvetica,sans-Serif" font-size="12.00" fill="#000000" transform="rotate(-90)">Included</text>
        </a>
      </g>
    </g>
    <!-- 3 -->
    <g id="node4" class="node">
      <title>3</title>
      <g id="a_node4">
        <a xlink:title="Yellow title box; Identification of new studies via databases and registers">
          <path fill="#bfbfbf" stroke="#bfbfbf" d="M580.8333,-748.9C580.8333,-748.9 60.1667,-748.9 60.1667,-748.9 55.3333,-748.9 50.5,-744.0667 50.5,-739.2333 50.5,-739.2333 50.5,-729.5667 50.5,-729.5667 50.5,-724.7333 55.3333,-719.9 60.1667,-719.9 60.1667,-719.9 580.8333,-719.9 580.8333,-719.9 585.6667,-719.9 590.5,-724.7333 590.5,-729.5667 590.5,-729.5667 590.5,-739.2333 590.5,-739.2333 590.5,-744.0667 585.6667,-748.9 580.8333,-748.9"/>
          <text text-anchor="middle" x="320.5" y="-730.8" font-family="Helvetica,sans-Serif" font-size="12.00" fill="#000000">Identification of studies via databases and registers</text>
        </a>
      </g>
    </g>
    <!-- 4 -->
    <g id="node5" class="node">
      <title>4</title>
      <g id="a_node5">
        <a xlink:title="Records identified from: Databases and Registers">
          <polygon fill="none" stroke="#000000" points="302.5,-684 50.5,-684 50.5,-468 302.5,-468 302.5,-684"/>
          <text text-anchor="middle" x="176.5" y="-651.6" font-family="Helvetica,sans-Serif" font-size="12.00" fill="#000000">Records identified from:</text>
          <text text-anchor="middle" x="176.5" y="-637.2" font-family="Helvetica,sans-Serif" font-size="12.00" fill="#000000">Databases (n = 4,232):</text>
          <text text-anchor="middle" x="176.5" y="-622.8" font-family="Helvetica,sans-Serif" font-size="12.00" fill="#000000">MEDLINE (n = 959)</text>
          <text text-anchor="middle" x="176.5" y="-608.4" font-family="Helvetica,sans-Serif" font-size="12.00" fill="#000000">EMBASE (n = 933)</text>
          <text text-anchor="middle" x="176.5" y="-594" font-family="Helvetica,sans-Serif" font-size="12.00" fill="#000000">Sociological Abstracts (n = 327)</text>
          <text text-anchor="middle" x="176.5" y="-579.6" font-family="Helvetica,sans-Serif" font-size="12.00" fill="#000000">Social Services Abstracts (n = 538)</text>
          <text text-anchor="middle" x="176.5" y="-565.2" font-family="Helvetica,sans-Serif" font-size="12.00" fill="#000000">CINAHL (n = 429)</text>
          <text text-anchor="middle" x="176.5" y="-550.8" font-family="Helvetica,sans-Serif" font-size="12.00" fill="#000000">PsycINFO (n = 360)</text>
          <text text-anchor="middle" x="176.5" y="-536.4" font-family="Helvetica,sans-Serif" font-size="12.00" fill="#000000">ERIC (n = 304)</text>
          <text text-anchor="middle" x="176.5" y="-522" font-family="Helvetica,sans-Serif" font-size="12.00" fill="#000000">Cochrane CENTRAL (n = 234)</text>
          <text text-anchor="middle" x="176.5" y="-507.6" font-family="Helvetica,sans-Serif" font-size="12.00" fill="#000000">Criminal Justice Abstracts (n = 131)</text>
          <text text-anchor="middle" x="176.5" y="-493.2" font-family="Helvetica,sans-Serif" font-size="12.00" fill="#000000">Violence &amp; Abuse Abstracts (n = 17)</text>
        </a>
      </g>
    </g>
    <!-- 5 -->
    <g id="node6" class="node">
      <title>5</title>
      <g id="a_node6">
        <a xlink:title="Duplicate records">
          <polygon fill="none" stroke="#000000" points="590.5,-594.3005 338.5,-594.3005 338.5,-557.6995 590.5,-557.6995 590.5,-594.3005"/>
          <text text-anchor="middle" x="464.5" y="-579.6" font-family="Helvetica,sans-Serif" font-size="12.00" fill="#000000">Records removed before screening:</text>
          <text text-anchor="middle" x="464.5" y="-565.2" font-family="Helvetica,sans-Serif" font-size="12.00" fill="#000000">Duplicate records (n = 1,593)</text>
        </a>
      </g>
    </g>
    <!-- 6 -->
    <g id="node7" class="node">
      <title>6</title>
      <g id="a_node7">
        <a xlink:title="Records screened (databases and registers)">
          <polygon fill="none" stroke="#000000" points="302.5,-396.3005 50.5,-396.3005 50.5,-359.6995 302.5,-359.6995 302.5,-396.3005"/>
          <text text-anchor="middle" x="176.5" y="-381.6" font-family="Helvetica,sans-Serif" font-size="12.00" fill="#000000">Records screened</text>
          <text text-anchor="middle" x="176.5" y="-367.2" font-family="Helvetica,sans-Serif" font-size="12.00" fill="#000000">(n = 2,639)</text>
        </a>
      </g>
    </g>
    <!-- 7 -->
    <g id="node8" class="node">
      <title>7</title>
      <g id="a_node8">
        <a xlink:title="Records excluded (databases and registers)">
          <polygon fill="none" stroke="#000000" points="590.5,-396.3005 338.5,-396.3005 338.5,-359.6995 590.5,-359.6995 590.5,-396.3005"/>
          <text text-anchor="middle" x="464.5" y="-381.6" font-family="Helvetica,sans-Serif" font-size="12.00" fill="#000000">Records excluded</text>
          <text text-anchor="middle" x="464.5" y="-367.2" font-family="Helvetica,sans-Serif" font-size="12.00" fill="#000000">(n = 2,558)</text>
        </a>
      </g>
    </g>
    <!-- 8 -->
    <g id="node9" class="node">
      <title>8</title>
      <g id="a_node9">
        <a xlink:title="Reports sought for retrieval (databases and registers)">
          <polygon fill="none" stroke="#000000" points="302.5,-324.3005 50.5,-324.3005 50.5,-287.6995 302.5,-287.6995 302.5,-324.3005"/>
          <text text-anchor="middle" x="176.5" y="-309.6" font-family="Helvetica,sans-Serif" font-size="12.00" fill="#000000">Reports sought for retrieval</text>
          <text text-anchor="middle" x="176.5" y="-295.2" font-family="Helvetica,sans-Serif" font-size="12.00" fill="#000000">(n = 81)</text>
        </a>
      </g>
    </g>
    <!-- 9 -->
    <g id="node10" class="node">
      <title>9</title>
      <g id="a_node10">
        <a xlink:title="Reports not retrieved (databases and registers)">
          <polygon fill="none" stroke="#000000" points="590.5,-324.3005 338.5,-324.3005 338.5,-287.6995 590.5,-287.6995 590.5,-324.3005"/>
          <text text-anchor="middle" x="464.5" y="-309.6" font-family="Helvetica,sans-Serif" font-size="12.00" fill="#000000">Reports not retrieved</text>
          <text text-anchor="middle" x="464.5" y="-295.2" font-family="Helvetica,sans-Serif" font-size="12.00" fill="#000000">(n = 0)</text>
        </a>
      </g>
    </g>
    <!-- 10 -->
    <g id="node11" class="node">
      <title>10</title>
      <g id="a_node11">
        <a xlink:title="Reports assessed for eligibility (databases and registers)">
          <polygon fill="none" stroke="#000000" points="302.5,-225.3005 50.5,-225.3005 50.5,-188.6995 302.5,-188.6995 302.5,-225.3005"/>
          <text text-anchor="middle" x="176.5" y="-210.6" font-family="Helvetica,sans-Serif" font-size="12.00" fill="#000000">Reports assessed for eligibility</text>
          <text text-anchor="middle" x="176.5" y="-196.2" font-family="Helvetica,sans-Serif" font-size="12.00" fill="#000000">(n = 81)</text>
        </a>
      </g>
    </g>
    <!-- 11 -->
    <g id="node12" class="node">
      <title>11</title>
      <g id="a_node12">
        <a xlink:title="Reports excluded (databases and registers)">
          <polygon fill="#ffffff" stroke="#000000" points="590.5,-247 338.5,-247 338.5,-167 590.5,-167 590.5,-247"/>
          <text text-anchor="middle" x="464.5" y="-232.2" font-family="Helvetica,sans-Serif" font-size="12.00" fill="#000000">Reports excluded:</text>
          <text text-anchor="middle" x="464.5" y="-217.8" font-family="Helvetica,sans-Serif" font-size="12.00" fill="#000000">Wrong intervention (n = 27)</text>
          <text text-anchor="middle" x="464.5" y="-203.4" font-family="Helvetica,sans-Serif" font-size="12.00" fill="#000000">Wrong population (n = 26)</text>
          <text text-anchor="middle" x="464.5" y="-189" font-family="Helvetica,sans-Serif" font-size="12.00" fill="#000000">Wrong study design (n = 12)</text>
          <text text-anchor="middle" x="464.5" y="-174.6" font-family="Helvetica,sans-Serif" font-size="12.00" fill="#000000">Study protocol (n = 2)</text>
        </a>
      </g>
    </g>
    <!-- 12 -->
    <g id="node13" class="node">
      <title>12</title>
      <g id="a_node13">
        <a xlink:title="New studies included in review">
          <polygon fill="none" stroke="#000000" points="302.5,-90 50.5,-90 50.5,-18 302.5,-18 302.5,-90"/>
          <text text-anchor="middle" x="176.5" y="-72" font-family="Helvetica,sans-Serif" font-size="12.00" fill="#000000">Studies included in review</text>
          <text text-anchor="middle" x="176.5" y="-57.6" font-family="Helvetica,sans-Serif" font-size="12.00" fill="#000000">(n = 5)</text>
          <text text-anchor="middle" x="176.5" y="-43.2" font-family="Helvetica,sans-Serif" font-size="12.00" fill="#000000">Reports of included studies</text>
          <text text-anchor="middle" x="176.5" y="-28.8" font-family="Helvetica,sans-Serif" font-size="12.00" fill="#000000">(n = 19)</text>
        </a>
      </g>
    </g>
    <!-- 13 -->
    <g id="node14" class="node">
      <title>13</title>
      <g id="a_node14">
        <a xlink:title="Grey title box; Identification of new studies via other methods">
          <path fill="#dcdcdc" stroke="#dcdcdc" d="M1156.8333,-748.9C1156.8333,-748.9 636.1667,-748.9 636.1667,-748.9 631.3333,-748.9 626.5,-744.0667 626.5,-739.2333 626.5,-739.2333 626.5,-729.5667 626.5,-729.5667 626.5,-724.7333 631.3333,-719.9 636.1667,-719.9 636.1667,-719.9 1156.8333,-719.9 1156.8333,-719.9 1161.6667,-719.9 1166.5,-724.7333 1166.5,-729.5667 1166.5,-729.5667 1166.5,-739.2333 1166.5,-739.2333 1166.5,-744.0667 1161.6667,-748.9 1156.8333,-748.9"/>
          <text text-anchor="middle" x="896.5" y="-730.8" font-family="Helvetica,sans-Serif" font-size="12.00" fill="#000000">Identification of studies via other methods</text>
        </a>
      </g>
    </g>
    <!-- 14 -->
    <g id="node15" class="node">
      <title>14</title>
      <g id="a_node15">
        <a xlink:title="Records identified from: Websites, Organisations and Citation Searching">
          <polygon fill="#dcdcdc" stroke="#dcdcdc" points="878.5,-612 626.5,-612 626.5,-540 878.5,-540 878.5,-612"/>
          <text text-anchor="middle" x="752.5" y="-594" font-family="Helvetica,sans-Serif" font-size="12.00" fill="#000000">Records identified from:</text>
          <text text-anchor="middle" x="752.5" y="-579.6" font-family="Helvetica,sans-Serif" font-size="12.00" fill="#000000">Websites (n = 1,676)</text>
          <text text-anchor="middle" x="752.5" y="-565.2" font-family="Helvetica,sans-Serif" font-size="12.00" fill="#000000">Organisations (n = 175)</text>
          <text text-anchor="middle" x="752.5" y="-550.8" font-family="Helvetica,sans-Serif" font-size="12.00" fill="#000000">Citation searching (n = 91)</text>
        </a>
      </g>
    </g>
    <!-- 15 -->
    <g id="node16" class="node">
      <title>15</title>
      <g id="a_node16">
        <a xlink:title="Reports sought for retrieval (other)">
          <polygon fill="#dcdcdc" stroke="#dcdcdc" points="878.5,-324.3005 626.5,-324.3005 626.5,-287.6995 878.5,-287.6995 878.5,-324.3005"/>
          <text text-anchor="middle" x="752.5" y="-309.6" font-family="Helvetica,sans-Serif" font-size="12.00" fill="#000000">Reports sought for retrieval</text>
          <text text-anchor="middle" x="752.5" y="-295.2" font-family="Helvetica,sans-Serif" font-size="12.00" fill="#000000">(n = 41)</text>
        </a>
      </g>
    </g>
    <!-- 16 -->
    <g id="node17" class="node">
      <title>16</title>
      <g id="a_node17">
        <a xlink:title="Reports not retrieved (other)">
          <polygon fill="#dcdcdc" stroke="#dcdcdc" points="1166.5,-324.3005 914.5,-324.3005 914.5,-287.6995 1166.5,-287.6995 1166.5,-324.3005"/>
          <text text-anchor="middle" x="1040.5" y="-309.6" font-family="Helvetica,sans-Serif" font-size="12.00" fill="#000000">Reports not retrieved</text>
          <text text-anchor="middle" x="1040.5" y="-295.2" font-family="Helvetica,sans-Serif" font-size="12.00" fill="#000000">(n = 0)</text>
        </a>
      </g>
    </g>
    <!-- 17 -->
    <g id="node18" class="node">
      <title>17</title>
      <g id="a_node18">
        <a xlink:title="Reports assessed for eligibility (other)">
          <polygon fill="#dcdcdc" stroke="#dcdcdc" points="878.5,-225.3005 626.5,-225.3005 626.5,-188.6995 878.5,-188.6995 878.5,-225.3005"/>
          <text text-anchor="middle" x="752.5" y="-210.6" font-family="Helvetica,sans-Serif" font-size="12.00" fill="#000000">Reports assessed for eligibility</text>
          <text text-anchor="middle" x="752.5" y="-196.2" font-family="Helvetica,sans-Serif" font-size="12.00" fill="#000000">(n = 41)</text>
        </a>
      </g>
    </g>
    <!-- 18 -->
    <g id="node19" class="node">
      <title>18</title>
      <g id="a_node19">
        <a xlink:title="Reports excluded (other)">
          <polygon fill="#dcdcdc" stroke="#dcdcdc" points="1166.5,-252 914.5,-252 914.5,-162 1166.5,-162 1166.5,-252"/>
          <text text-anchor="middle" x="1040.5" y="-232.2" font-family="Helvetica,sans-Serif" font-size="12.00" fill="#000000">Reports excluded:</text>
          <text text-anchor="middle" x="1040.5" y="-217.8" font-family="Helvetica,sans-Serif" font-size="12.00" fill="#000000">Wrong study design (n = 25)</text>
          <text text-anchor="middle" x="1040.5" y="-203.4" font-family="Helvetica,sans-Serif" font-size="12.00" fill="#000000">Wrong Population (n = 5)</text>
          <text text-anchor="middle" x="1040.5" y="-189" font-family="Helvetica,sans-Serif" font-size="12.00" fill="#000000">Wrong intervention (n = 4)</text>
          <text text-anchor="middle" x="1040.5" y="-174.6" font-family="Helvetica,sans-Serif" font-size="12.00" fill="#000000">Duplicate (n = 2)</text>
        </a>
      </g>
    </g>
    <!-- B -->
    <g id="node20" class="node">
      <title>B</title>
      <polygon fill="none" stroke="#ffffff" points="753,-54.5 752,-54.5 752,-53.5 753,-53.5 753,-54.5"/>
    </g>
    <!-- C -->
  </g>
</svg>
